{"title":"Iron.Man.2.2010.DVDRiP.XViD.Optional.Multi_Sub-Zen_Bud","uid":5875254,"size":1497753124,"categoryP":"video","categoryS":"movies","magnet":"?xt=urn:btih:2bfcbb4661c17e3ced7b775637d8f024954789e0&amp;dn=Iron.Man.2.2010.DVDRiP.XViD.Optional.Multi_Sub-Zen_Bud&amp;tr=udp%3A%2F%2Ftracker.openbittorrent.com%3A80&amp;tr=udp%3A%2F%2Fopen.demonii.com%3A1337&amp;tr=udp%3A%2F%2Ftracker.coppersurfer.tk%3A6969&amp;tr=udp%3A%2F%2Fexodus.desync.com%3A6969","seeders":2,"leechers":0,"uploader":"Zen_Bud","files":-1,"time":1286613472,"description":"\n******* Iron.Man.2.2010.DVDRiP.XViD.Optional.Multi_Sub-Zen_Bud *******\n\nFormat                           : AVI\nFile size                        : 1.37 GiB\nDuration                         : 1h 59mn\nOverall bit rate                 : 1 643 Kbps\n\nVideo\n\nFormat                           : MPEG-4 Visual\nCodec ID/Hint                    : XviD\nDuration                         : 1h 59mn\nBit rate                         : 1 502 Kbps\nWidth                            : 720 pixels\nHeight                           : 436 pixels\nDisplay aspect ratio             : 2.35:1\nStream size                      : 1.25 GiB (91%)\nWriting library                  : XviD 1.1.2 (UTC 2006-11-01)\n\nAudio\n\nFormat                           : MPEG Audio\nCodec ID/Hint                    : MP3\nDuration                         : 1h 59mn\nBit rate                         : 128 Kbps\nChannel(s)                       : 2 channels\nSampling rate                    : 48.0 KHz\nStream size                      : 109 MiB (8%)\nWriting library                  : LAME3.98\nLanguage                         : English\n\nText #1\nLanguage                         : Danish\n\nText #2\nLanguage                         : English\n\nText #3\nLanguage                         : Dutch\n\nText #4\nLanguage                         : Norwegian\n\nText #5\nLanguage                         : Finnish\n\nText #6\nLanguage                         : Swedish\n","torrent":{"xt":"urn:btih:2bfcbb4661c17e3ced7b775637d8f024954789e0","amp;dn":"Iron.Man.2.2010.DVDRiP.XViD.Optional.Multi_Sub-Zen_Bud","amp;tr":["udp%3A%2F%2Ftracker.openbittorrent.com%3A80","udp%3A%2F%2Fopen.demonii.com%3A1337","udp%3A%2F%2Ftracker.coppersurfer.tk%3A6969","udp%3A%2F%2Fexodus.desync.com%3A6969"],"infoHash":"2bfcbb4661c17e3ced7b775637d8f024954789e0","infoHashBuffer":{"type":"Buffer","data":[43,252,187,70,97,193,126,60,237,123,119,86,55,216,240,36,149,71,137,224]},"announce":[],"urlList":[]}}